<mxfile host="app.diagrams.net" modified="2024-01-23T10:28:38.417Z" agent="Mozilla/5.0 (Windows NT 10.0; Win64; x64) AppleWebKit/537.36 (KHTML, like Gecko) Chrome/120.0.0.0 Safari/537.36" etag="AA5p-LidK0xcPK28C_nJ" version="22.1.17" type="device">
  <diagram name="Page-1" id="-fpCw3JAVcEd0M-eArbN">
    <mxGraphModel dx="1105" dy="586" grid="1" gridSize="10" guides="1" tooltips="1" connect="1" arrows="1" fold="1" page="1" pageScale="1" pageWidth="850" pageHeight="1100" math="0" shadow="0">
      <root>
        <mxCell id="0" />
        <mxCell id="1" parent="0" />
        <mxCell id="VqwuYJli2PU7QNLnDke9-2" value="Use Case Pengeolaan Penelitian" style="shape=umlFrame;whiteSpace=wrap;html=1;pointerEvents=0;width=80;height=50;" parent="1" vertex="1">
          <mxGeometry x="120" y="190" width="670" height="1050" as="geometry" />
        </mxCell>
        <mxCell id="_Iah75ju9b48-cvp-f7g-73" style="rounded=0;orthogonalLoop=1;jettySize=auto;html=1;entryX=0;entryY=0.5;entryDx=0;entryDy=0;dashed=1;" edge="1" parent="1" source="VqwuYJli2PU7QNLnDke9-3" target="_Iah75ju9b48-cvp-f7g-2">
          <mxGeometry relative="1" as="geometry" />
        </mxCell>
        <mxCell id="_Iah75ju9b48-cvp-f7g-74" value="&amp;lt;&amp;lt;include&amp;gt;&amp;gt;" style="edgeLabel;html=1;align=center;verticalAlign=middle;resizable=0;points=[];" vertex="1" connectable="0" parent="_Iah75ju9b48-cvp-f7g-73">
          <mxGeometry x="-0.1162" y="1" relative="1" as="geometry">
            <mxPoint as="offset" />
          </mxGeometry>
        </mxCell>
        <mxCell id="VqwuYJli2PU7QNLnDke9-3" value="Pengajuan proposal" style="ellipse;whiteSpace=wrap;html=1;" parent="1" vertex="1">
          <mxGeometry x="180" y="260" width="120" height="80" as="geometry" />
        </mxCell>
        <mxCell id="_Iah75ju9b48-cvp-f7g-5" style="rounded=0;orthogonalLoop=1;jettySize=auto;html=1;entryX=1;entryY=0.5;entryDx=0;entryDy=0;endArrow=none;endFill=0;" edge="1" parent="1" source="VqwuYJli2PU7QNLnDke9-4" target="_Iah75ju9b48-cvp-f7g-2">
          <mxGeometry relative="1" as="geometry" />
        </mxCell>
        <mxCell id="_Iah75ju9b48-cvp-f7g-72" style="rounded=0;orthogonalLoop=1;jettySize=auto;html=1;entryX=1;entryY=0.5;entryDx=0;entryDy=0;endArrow=none;endFill=0;" edge="1" parent="1" source="VqwuYJli2PU7QNLnDke9-4" target="_Iah75ju9b48-cvp-f7g-25">
          <mxGeometry relative="1" as="geometry" />
        </mxCell>
        <mxCell id="_Iah75ju9b48-cvp-f7g-76" style="rounded=0;orthogonalLoop=1;jettySize=auto;html=1;endArrow=none;endFill=0;" edge="1" parent="1" source="VqwuYJli2PU7QNLnDke9-4" target="_Iah75ju9b48-cvp-f7g-6">
          <mxGeometry relative="1" as="geometry" />
        </mxCell>
        <mxCell id="_Iah75ju9b48-cvp-f7g-95" style="rounded=0;orthogonalLoop=1;jettySize=auto;html=1;entryX=0.5;entryY=0;entryDx=0;entryDy=0;endArrow=none;endFill=0;" edge="1" parent="1" source="VqwuYJli2PU7QNLnDke9-4" target="_Iah75ju9b48-cvp-f7g-92">
          <mxGeometry relative="1" as="geometry" />
        </mxCell>
        <mxCell id="_Iah75ju9b48-cvp-f7g-110" style="rounded=0;orthogonalLoop=1;jettySize=auto;html=1;entryX=1;entryY=0.5;entryDx=0;entryDy=0;endArrow=none;endFill=0;" edge="1" parent="1" source="VqwuYJli2PU7QNLnDke9-4" target="_Iah75ju9b48-cvp-f7g-100">
          <mxGeometry relative="1" as="geometry" />
        </mxCell>
        <mxCell id="VqwuYJli2PU7QNLnDke9-4" value="LPPM" style="shape=umlActor;verticalLabelPosition=bottom;verticalAlign=top;html=1;outlineConnect=0;" parent="1" vertex="1">
          <mxGeometry x="910" y="410" width="30" height="60" as="geometry" />
        </mxCell>
        <mxCell id="_Iah75ju9b48-cvp-f7g-3" style="rounded=0;orthogonalLoop=1;jettySize=auto;html=1;endArrow=none;endFill=0;" edge="1" parent="1" source="VqwuYJli2PU7QNLnDke9-7" target="VqwuYJli2PU7QNLnDke9-3">
          <mxGeometry relative="1" as="geometry" />
        </mxCell>
        <mxCell id="_Iah75ju9b48-cvp-f7g-80" style="rounded=0;orthogonalLoop=1;jettySize=auto;html=1;entryX=0;entryY=0.5;entryDx=0;entryDy=0;endArrow=none;endFill=0;" edge="1" parent="1" source="VqwuYJli2PU7QNLnDke9-7" target="_Iah75ju9b48-cvp-f7g-79">
          <mxGeometry relative="1" as="geometry" />
        </mxCell>
        <mxCell id="_Iah75ju9b48-cvp-f7g-89" style="rounded=0;orthogonalLoop=1;jettySize=auto;html=1;entryX=0;entryY=0.5;entryDx=0;entryDy=0;endArrow=none;endFill=0;" edge="1" parent="1" source="VqwuYJli2PU7QNLnDke9-7" target="_Iah75ju9b48-cvp-f7g-88">
          <mxGeometry relative="1" as="geometry" />
        </mxCell>
        <mxCell id="_Iah75ju9b48-cvp-f7g-97" style="rounded=0;orthogonalLoop=1;jettySize=auto;html=1;entryX=0;entryY=0.5;entryDx=0;entryDy=0;endArrow=none;endFill=0;" edge="1" parent="1" source="VqwuYJli2PU7QNLnDke9-7" target="_Iah75ju9b48-cvp-f7g-96">
          <mxGeometry relative="1" as="geometry" />
        </mxCell>
        <mxCell id="_Iah75ju9b48-cvp-f7g-104" style="rounded=0;orthogonalLoop=1;jettySize=auto;html=1;entryX=0;entryY=0.5;entryDx=0;entryDy=0;endArrow=none;endFill=0;" edge="1" parent="1" source="VqwuYJli2PU7QNLnDke9-7" target="_Iah75ju9b48-cvp-f7g-103">
          <mxGeometry relative="1" as="geometry" />
        </mxCell>
        <mxCell id="_Iah75ju9b48-cvp-f7g-113" style="rounded=0;orthogonalLoop=1;jettySize=auto;html=1;entryX=0;entryY=0.5;entryDx=0;entryDy=0;endArrow=none;endFill=0;" edge="1" parent="1" source="VqwuYJli2PU7QNLnDke9-7" target="_Iah75ju9b48-cvp-f7g-112">
          <mxGeometry relative="1" as="geometry" />
        </mxCell>
        <mxCell id="_Iah75ju9b48-cvp-f7g-119" style="rounded=0;orthogonalLoop=1;jettySize=auto;html=1;entryX=0;entryY=0.5;entryDx=0;entryDy=0;endArrow=none;endFill=0;" edge="1" parent="1" source="VqwuYJli2PU7QNLnDke9-7" target="_Iah75ju9b48-cvp-f7g-118">
          <mxGeometry relative="1" as="geometry" />
        </mxCell>
        <mxCell id="_Iah75ju9b48-cvp-f7g-126" style="rounded=0;orthogonalLoop=1;jettySize=auto;html=1;entryX=0;entryY=0.5;entryDx=0;entryDy=0;" edge="1" parent="1" source="VqwuYJli2PU7QNLnDke9-7" target="_Iah75ju9b48-cvp-f7g-125">
          <mxGeometry relative="1" as="geometry" />
        </mxCell>
        <mxCell id="_Iah75ju9b48-cvp-f7g-131" style="rounded=0;orthogonalLoop=1;jettySize=auto;html=1;entryX=0;entryY=0.5;entryDx=0;entryDy=0;endArrow=none;endFill=0;" edge="1" parent="1" source="VqwuYJli2PU7QNLnDke9-7" target="_Iah75ju9b48-cvp-f7g-129">
          <mxGeometry relative="1" as="geometry" />
        </mxCell>
        <mxCell id="VqwuYJli2PU7QNLnDke9-7" value="Dosen" style="shape=umlActor;verticalLabelPosition=bottom;verticalAlign=top;html=1;outlineConnect=0;" parent="1" vertex="1">
          <mxGeometry x="10" y="310" width="30" height="60" as="geometry" />
        </mxCell>
        <mxCell id="_Iah75ju9b48-cvp-f7g-85" style="rounded=0;orthogonalLoop=1;jettySize=auto;html=1;entryX=0;entryY=0.5;entryDx=0;entryDy=0;endArrow=none;endFill=0;" edge="1" parent="1" source="VqwuYJli2PU7QNLnDke9-9" target="_Iah75ju9b48-cvp-f7g-84">
          <mxGeometry relative="1" as="geometry" />
        </mxCell>
        <mxCell id="VqwuYJli2PU7QNLnDke9-9" value="Reviewer" style="shape=umlActor;verticalLabelPosition=bottom;verticalAlign=top;html=1;outlineConnect=0;" parent="1" vertex="1">
          <mxGeometry x="10" y="550" width="30" height="60" as="geometry" />
        </mxCell>
        <mxCell id="_Iah75ju9b48-cvp-f7g-82" style="rounded=0;orthogonalLoop=1;jettySize=auto;html=1;dashed=1;exitX=1;exitY=1;exitDx=0;exitDy=0;" edge="1" parent="1" source="_Iah75ju9b48-cvp-f7g-79" target="_Iah75ju9b48-cvp-f7g-6">
          <mxGeometry relative="1" as="geometry" />
        </mxCell>
        <mxCell id="_Iah75ju9b48-cvp-f7g-83" value="&amp;lt;&amp;lt;extend&amp;gt;&amp;gt;" style="edgeLabel;html=1;align=center;verticalAlign=middle;resizable=0;points=[];" vertex="1" connectable="0" parent="_Iah75ju9b48-cvp-f7g-82">
          <mxGeometry x="-0.2709" y="-1" relative="1" as="geometry">
            <mxPoint as="offset" />
          </mxGeometry>
        </mxCell>
        <mxCell id="_Iah75ju9b48-cvp-f7g-6" value="Pencairan Dana Tahap 1" style="ellipse;whiteSpace=wrap;html=1;" vertex="1" parent="1">
          <mxGeometry x="650" y="390" width="120" height="80" as="geometry" />
        </mxCell>
        <mxCell id="_Iah75ju9b48-cvp-f7g-77" style="rounded=0;orthogonalLoop=1;jettySize=auto;html=1;exitX=1;exitY=1;exitDx=0;exitDy=0;dashed=1;" edge="1" parent="1" source="_Iah75ju9b48-cvp-f7g-2" target="_Iah75ju9b48-cvp-f7g-6">
          <mxGeometry relative="1" as="geometry" />
        </mxCell>
        <mxCell id="_Iah75ju9b48-cvp-f7g-78" value="&amp;lt;&amp;lt;include&amp;gt;&amp;gt;" style="edgeLabel;html=1;align=center;verticalAlign=middle;resizable=0;points=[];" vertex="1" connectable="0" parent="_Iah75ju9b48-cvp-f7g-77">
          <mxGeometry x="-0.3865" y="-1" relative="1" as="geometry">
            <mxPoint x="32" y="4" as="offset" />
          </mxGeometry>
        </mxCell>
        <mxCell id="_Iah75ju9b48-cvp-f7g-114" style="rounded=0;orthogonalLoop=1;jettySize=auto;html=1;entryX=1;entryY=0.5;entryDx=0;entryDy=0;dashed=1;" edge="1" parent="1" source="_Iah75ju9b48-cvp-f7g-2" target="_Iah75ju9b48-cvp-f7g-112">
          <mxGeometry relative="1" as="geometry" />
        </mxCell>
        <mxCell id="_Iah75ju9b48-cvp-f7g-115" value="&amp;lt;&amp;lt;include&amp;gt;&amp;gt;" style="edgeLabel;html=1;align=center;verticalAlign=middle;resizable=0;points=[];" vertex="1" connectable="0" parent="_Iah75ju9b48-cvp-f7g-114">
          <mxGeometry x="0.0881" y="1" relative="1" as="geometry">
            <mxPoint as="offset" />
          </mxGeometry>
        </mxCell>
        <mxCell id="_Iah75ju9b48-cvp-f7g-2" value="Review Proposal" style="ellipse;whiteSpace=wrap;html=1;" vertex="1" parent="1">
          <mxGeometry x="400" y="330" width="120" height="80" as="geometry" />
        </mxCell>
        <mxCell id="_Iah75ju9b48-cvp-f7g-40" style="rounded=0;orthogonalLoop=1;jettySize=auto;html=1;dashed=1;" edge="1" parent="1" source="_Iah75ju9b48-cvp-f7g-25" target="VqwuYJli2PU7QNLnDke9-3">
          <mxGeometry relative="1" as="geometry" />
        </mxCell>
        <mxCell id="_Iah75ju9b48-cvp-f7g-41" value="&amp;lt;&amp;lt;include&amp;gt;&amp;gt;" style="edgeLabel;html=1;align=center;verticalAlign=middle;resizable=0;points=[];" vertex="1" connectable="0" parent="_Iah75ju9b48-cvp-f7g-40">
          <mxGeometry x="-0.0983" y="-3" relative="1" as="geometry">
            <mxPoint as="offset" />
          </mxGeometry>
        </mxCell>
        <mxCell id="_Iah75ju9b48-cvp-f7g-25" value="Login" style="ellipse;whiteSpace=wrap;html=1;" vertex="1" parent="1">
          <mxGeometry x="400" y="200" width="120" height="80" as="geometry" />
        </mxCell>
        <mxCell id="_Iah75ju9b48-cvp-f7g-75" style="rounded=0;orthogonalLoop=1;jettySize=auto;html=1;entryX=0;entryY=0.5;entryDx=0;entryDy=0;edgeStyle=orthogonalEdgeStyle;endArrow=none;endFill=0;" edge="1" parent="1" target="_Iah75ju9b48-cvp-f7g-2">
          <mxGeometry relative="1" as="geometry">
            <mxPoint x="80.95999999999988" y="610" as="sourcePoint" />
            <mxPoint x="399.99999999999994" y="413.52" as="targetPoint" />
            <Array as="points">
              <mxPoint x="160" y="610" />
              <mxPoint x="160" y="420" />
              <mxPoint x="400" y="420" />
            </Array>
          </mxGeometry>
        </mxCell>
        <mxCell id="_Iah75ju9b48-cvp-f7g-86" style="rounded=0;orthogonalLoop=1;jettySize=auto;html=1;dashed=1;" edge="1" parent="1" source="_Iah75ju9b48-cvp-f7g-79" target="_Iah75ju9b48-cvp-f7g-84">
          <mxGeometry relative="1" as="geometry" />
        </mxCell>
        <mxCell id="_Iah75ju9b48-cvp-f7g-87" value="&amp;lt;&amp;lt;include&amp;gt;&amp;gt;" style="edgeLabel;html=1;align=center;verticalAlign=middle;resizable=0;points=[];" vertex="1" connectable="0" parent="_Iah75ju9b48-cvp-f7g-86">
          <mxGeometry x="0.0652" y="-2" relative="1" as="geometry">
            <mxPoint x="17" y="1" as="offset" />
          </mxGeometry>
        </mxCell>
        <mxCell id="_Iah75ju9b48-cvp-f7g-79" value="Pengajuan laporan kemajuan" style="ellipse;whiteSpace=wrap;html=1;" vertex="1" parent="1">
          <mxGeometry x="200" y="470" width="120" height="80" as="geometry" />
        </mxCell>
        <mxCell id="_Iah75ju9b48-cvp-f7g-90" style="rounded=0;orthogonalLoop=1;jettySize=auto;html=1;entryX=0.5;entryY=0;entryDx=0;entryDy=0;dashed=1;" edge="1" parent="1" source="_Iah75ju9b48-cvp-f7g-84" target="_Iah75ju9b48-cvp-f7g-88">
          <mxGeometry relative="1" as="geometry" />
        </mxCell>
        <mxCell id="_Iah75ju9b48-cvp-f7g-91" value="&amp;lt;&amp;lt;include&amp;gt;&amp;gt;" style="edgeLabel;html=1;align=center;verticalAlign=middle;resizable=0;points=[];" vertex="1" connectable="0" parent="_Iah75ju9b48-cvp-f7g-90">
          <mxGeometry x="-0.3678" relative="1" as="geometry">
            <mxPoint as="offset" />
          </mxGeometry>
        </mxCell>
        <mxCell id="_Iah75ju9b48-cvp-f7g-84" value="Review Laporan Kemajuan" style="ellipse;whiteSpace=wrap;html=1;" vertex="1" parent="1">
          <mxGeometry x="400" y="550" width="120" height="80" as="geometry" />
        </mxCell>
        <mxCell id="_Iah75ju9b48-cvp-f7g-93" style="rounded=0;orthogonalLoop=1;jettySize=auto;html=1;entryX=0;entryY=0.5;entryDx=0;entryDy=0;dashed=1;" edge="1" parent="1" source="_Iah75ju9b48-cvp-f7g-88" target="_Iah75ju9b48-cvp-f7g-92">
          <mxGeometry relative="1" as="geometry" />
        </mxCell>
        <mxCell id="_Iah75ju9b48-cvp-f7g-94" value="&amp;lt;&amp;lt;include&amp;gt;&amp;gt;" style="edgeLabel;html=1;align=center;verticalAlign=middle;resizable=0;points=[];" vertex="1" connectable="0" parent="_Iah75ju9b48-cvp-f7g-93">
          <mxGeometry x="-0.1214" y="3" relative="1" as="geometry">
            <mxPoint as="offset" />
          </mxGeometry>
        </mxCell>
        <mxCell id="_Iah75ju9b48-cvp-f7g-88" value="Pengajuan laporan akhir" style="ellipse;whiteSpace=wrap;html=1;" vertex="1" parent="1">
          <mxGeometry x="200" y="720" width="120" height="80" as="geometry" />
        </mxCell>
        <mxCell id="_Iah75ju9b48-cvp-f7g-98" style="rounded=0;orthogonalLoop=1;jettySize=auto;html=1;entryX=1;entryY=0;entryDx=0;entryDy=0;dashed=1;" edge="1" parent="1" source="_Iah75ju9b48-cvp-f7g-92" target="_Iah75ju9b48-cvp-f7g-96">
          <mxGeometry relative="1" as="geometry" />
        </mxCell>
        <mxCell id="_Iah75ju9b48-cvp-f7g-99" value="&amp;lt;&amp;lt;include&amp;gt;&amp;gt;" style="edgeLabel;html=1;align=center;verticalAlign=middle;resizable=0;points=[];" vertex="1" connectable="0" parent="_Iah75ju9b48-cvp-f7g-98">
          <mxGeometry x="-0.3543" y="-3" relative="1" as="geometry">
            <mxPoint x="22" y="-3" as="offset" />
          </mxGeometry>
        </mxCell>
        <mxCell id="_Iah75ju9b48-cvp-f7g-127" style="rounded=0;orthogonalLoop=1;jettySize=auto;html=1;dashed=1;" edge="1" parent="1" source="_Iah75ju9b48-cvp-f7g-92" target="_Iah75ju9b48-cvp-f7g-125">
          <mxGeometry relative="1" as="geometry" />
        </mxCell>
        <mxCell id="_Iah75ju9b48-cvp-f7g-128" value="&amp;lt;&amp;lt;include&amp;gt;&amp;gt;" style="edgeLabel;html=1;align=center;verticalAlign=middle;resizable=0;points=[];" vertex="1" connectable="0" parent="_Iah75ju9b48-cvp-f7g-127">
          <mxGeometry x="-0.2277" y="1" relative="1" as="geometry">
            <mxPoint x="-55" y="26" as="offset" />
          </mxGeometry>
        </mxCell>
        <mxCell id="_Iah75ju9b48-cvp-f7g-92" value="Review Laporan akhir" style="ellipse;whiteSpace=wrap;html=1;" vertex="1" parent="1">
          <mxGeometry x="600" y="630" width="120" height="80" as="geometry" />
        </mxCell>
        <mxCell id="_Iah75ju9b48-cvp-f7g-96" value="Menguggah LOA" style="ellipse;whiteSpace=wrap;html=1;" vertex="1" parent="1">
          <mxGeometry x="190" y="910" width="120" height="80" as="geometry" />
        </mxCell>
        <mxCell id="_Iah75ju9b48-cvp-f7g-105" style="rounded=0;orthogonalLoop=1;jettySize=auto;html=1;dashed=1;exitX=1;exitY=0;exitDx=0;exitDy=0;" edge="1" parent="1" source="_Iah75ju9b48-cvp-f7g-103" target="_Iah75ju9b48-cvp-f7g-100">
          <mxGeometry relative="1" as="geometry" />
        </mxCell>
        <mxCell id="_Iah75ju9b48-cvp-f7g-106" value="&amp;lt;&amp;lt;extend&amp;gt;&amp;gt;" style="edgeLabel;html=1;align=center;verticalAlign=middle;resizable=0;points=[];" vertex="1" connectable="0" parent="_Iah75ju9b48-cvp-f7g-105">
          <mxGeometry x="-0.3043" y="-1" relative="1" as="geometry">
            <mxPoint x="-33" y="5" as="offset" />
          </mxGeometry>
        </mxCell>
        <mxCell id="_Iah75ju9b48-cvp-f7g-100" value="Pencairan Dana Tahap 2" style="ellipse;whiteSpace=wrap;html=1;" vertex="1" parent="1">
          <mxGeometry x="590" y="740" width="120" height="80" as="geometry" />
        </mxCell>
        <mxCell id="_Iah75ju9b48-cvp-f7g-101" style="rounded=0;orthogonalLoop=1;jettySize=auto;html=1;entryX=0;entryY=0.5;entryDx=0;entryDy=0;dashed=1;exitX=1;exitY=0.5;exitDx=0;exitDy=0;" edge="1" parent="1" source="_Iah75ju9b48-cvp-f7g-96" target="_Iah75ju9b48-cvp-f7g-100">
          <mxGeometry relative="1" as="geometry">
            <mxPoint x="330" y="680" as="sourcePoint" />
            <mxPoint x="610" y="680" as="targetPoint" />
          </mxGeometry>
        </mxCell>
        <mxCell id="_Iah75ju9b48-cvp-f7g-102" value="&amp;lt;&amp;lt;include&amp;gt;&amp;gt;" style="edgeLabel;html=1;align=center;verticalAlign=middle;resizable=0;points=[];" vertex="1" connectable="0" parent="_Iah75ju9b48-cvp-f7g-101">
          <mxGeometry x="-0.1214" y="3" relative="1" as="geometry">
            <mxPoint as="offset" />
          </mxGeometry>
        </mxCell>
        <mxCell id="_Iah75ju9b48-cvp-f7g-108" style="rounded=0;orthogonalLoop=1;jettySize=auto;html=1;entryX=0;entryY=0.5;entryDx=0;entryDy=0;dashed=1;" edge="1" parent="1" source="_Iah75ju9b48-cvp-f7g-103" target="_Iah75ju9b48-cvp-f7g-107">
          <mxGeometry relative="1" as="geometry" />
        </mxCell>
        <mxCell id="_Iah75ju9b48-cvp-f7g-109" value="&amp;lt;&amp;lt;include&amp;gt;&amp;gt;" style="edgeLabel;html=1;align=center;verticalAlign=middle;resizable=0;points=[];" vertex="1" connectable="0" parent="_Iah75ju9b48-cvp-f7g-108">
          <mxGeometry x="-0.163" y="3" relative="1" as="geometry">
            <mxPoint y="3" as="offset" />
          </mxGeometry>
        </mxCell>
        <mxCell id="_Iah75ju9b48-cvp-f7g-103" value="Mengelola Luaran" style="ellipse;whiteSpace=wrap;html=1;" vertex="1" parent="1">
          <mxGeometry x="190" y="1040" width="120" height="80" as="geometry" />
        </mxCell>
        <mxCell id="_Iah75ju9b48-cvp-f7g-107" value="Review luaran" style="ellipse;whiteSpace=wrap;html=1;" vertex="1" parent="1">
          <mxGeometry x="620" y="900" width="120" height="80" as="geometry" />
        </mxCell>
        <mxCell id="_Iah75ju9b48-cvp-f7g-111" style="rounded=0;orthogonalLoop=1;jettySize=auto;html=1;entryX=1.008;entryY=0.644;entryDx=0;entryDy=0;entryPerimeter=0;endArrow=none;endFill=0;" edge="1" parent="1" source="VqwuYJli2PU7QNLnDke9-4" target="_Iah75ju9b48-cvp-f7g-107">
          <mxGeometry relative="1" as="geometry" />
        </mxCell>
        <mxCell id="_Iah75ju9b48-cvp-f7g-112" value="Revisi proposal" style="ellipse;whiteSpace=wrap;html=1;" vertex="1" parent="1">
          <mxGeometry x="180" y="350" width="100" height="60" as="geometry" />
        </mxCell>
        <mxCell id="_Iah75ju9b48-cvp-f7g-118" value="Revisi laporan kemajuan" style="ellipse;whiteSpace=wrap;html=1;" vertex="1" parent="1">
          <mxGeometry x="200" y="610" width="120" height="80" as="geometry" />
        </mxCell>
        <mxCell id="_Iah75ju9b48-cvp-f7g-120" style="rounded=0;orthogonalLoop=1;jettySize=auto;html=1;entryX=0.928;entryY=0.237;entryDx=0;entryDy=0;entryPerimeter=0;dashed=1;" edge="1" parent="1" source="_Iah75ju9b48-cvp-f7g-84" target="_Iah75ju9b48-cvp-f7g-118">
          <mxGeometry relative="1" as="geometry" />
        </mxCell>
        <mxCell id="_Iah75ju9b48-cvp-f7g-121" value="&amp;lt;&amp;lt;include&amp;gt;&amp;gt;" style="edgeLabel;html=1;align=center;verticalAlign=middle;resizable=0;points=[];" vertex="1" connectable="0" parent="_Iah75ju9b48-cvp-f7g-120">
          <mxGeometry x="-0.4628" y="2" relative="1" as="geometry">
            <mxPoint x="-18" y="2" as="offset" />
          </mxGeometry>
        </mxCell>
        <mxCell id="_Iah75ju9b48-cvp-f7g-125" value="Revisi laporan akhir" style="ellipse;whiteSpace=wrap;html=1;" vertex="1" parent="1">
          <mxGeometry x="200" y="820" width="120" height="80" as="geometry" />
        </mxCell>
        <mxCell id="_Iah75ju9b48-cvp-f7g-132" style="rounded=0;orthogonalLoop=1;jettySize=auto;html=1;dashed=1;" edge="1" parent="1" source="_Iah75ju9b48-cvp-f7g-107" target="_Iah75ju9b48-cvp-f7g-129">
          <mxGeometry relative="1" as="geometry" />
        </mxCell>
        <mxCell id="_Iah75ju9b48-cvp-f7g-135" value="&amp;lt;&amp;lt;include&amp;gt;&amp;gt;" style="edgeLabel;html=1;align=center;verticalAlign=middle;resizable=0;points=[];" vertex="1" connectable="0" parent="_Iah75ju9b48-cvp-f7g-132">
          <mxGeometry x="0.1047" y="-1" relative="1" as="geometry">
            <mxPoint as="offset" />
          </mxGeometry>
        </mxCell>
        <mxCell id="_Iah75ju9b48-cvp-f7g-129" value="Revisi Luaran" style="ellipse;whiteSpace=wrap;html=1;" vertex="1" parent="1">
          <mxGeometry x="190" y="1140" width="120" height="80" as="geometry" />
        </mxCell>
      </root>
    </mxGraphModel>
  </diagram>
</mxfile>
